STARTFONT 2.1
COMMENT This font was automatically resized by bdfresize-1.4
COMMENT   mag_x = 2/3, mag_y = 2/3, blackness = 3
COMMENT This font image is originally translated from Metafont "dvng10"
COMMENT from devnagri package.
COMMENT DPI was ``147'', usermag ``1000'', blackness ``3''
COMMENT shrink was 1
FONT -Misc-Fixed-Medium-R-Normal--16-160-72-72-C-80-is13194-devanagari
SIZE 16 72 72
FONTBOUNDINGBOX 16 16 0 -3
STARTPROPERTIES 22
FOUNDRY "Misc"
FAMILY_NAME "Fixed"
WEIGHT_NAME "Medium"
SLANT "R"
SETWIDTH_NAME "Normal"
ADD_STYLE_NAME ""
PIXEL_SIZE 16
POINT_SIZE 160
RESOLUTION_X 72
RESOLUTION_Y 72
SPACING "C"
AVERAGE_WIDTH 160
CHARSET_REGISTRY "is13194"
CHARSET_ENCODING "devanagari"
STRIKEOUT_ASCENT 13
STRIKEOUT_DESCENT 3
X_HEIGHT 10
FACE_NAME "Indian"
COPYRIGHT "Public domain"
FONT_ASCENT 13
FONT_DESCENT 3
DEFAULT_CHAR 33
ENDPROPERTIES
CHARS 94
STARTCHAR c21
ENCODING 33
SWIDTH 334 0
DWIDTH 16 0
BBX 16 3 0 10
BITMAP
0054
0034
001c
ENDCHAR
STARTCHAR c22
ENCODING 34
SWIDTH 334 0
DWIDTH 16 0
BBX 16 2 0 11
BITMAP
000c
000c
ENDCHAR
STARTCHAR c23
ENCODING 35
SWIDTH 334 0
DWIDTH 16 0
BBX 16 8 0 2
BITMAP
7ffe
7ffe
0000
0800
0800
0000
0800
1800
ENDCHAR
STARTCHAR c24
ENCODING 36
SWIDTH 334 0
DWIDTH 16 0
BBX 16 10 0 0
BITMAP
19fe
7dff
2660
1e60
5ee0
63e0
2760
1e60
0c60
0020
ENDCHAR
STARTCHAR c25
ENCODING 37
SWIDTH 334 0
DWIDTH 16 0
BBX 16 10 0 0
BITMAP
19fe
7dff
2666
1e66
5ee6
63e6
2766
1e66
0c66
0022
ENDCHAR
STARTCHAR c26
ENCODING 38
SWIDTH 334 0
DWIDTH 16 0
BBX 16 10 0 0
BITMAP
fffe
7fff
0780
0f80
0f00
0780
07c0
0f80
0780
00c0
ENDCHAR
STARTCHAR c27
ENCODING 39
SWIDTH 334 0
DWIDTH 16 0
BBX 16 13 0 0
BITMAP
0380
03c0
0100
fffe
7fff
0780
0f80
0f00
0780
07c0
0f80
0780
00c0
ENDCHAR
STARTCHAR c28
ENCODING 40
SWIDTH 334 0
DWIDTH 16 0
BBX 16 9 0 1
BITMAP
fffe
7fff
0060
03e0
03c0
0c40
0460
03e0
01c0
ENDCHAR
STARTCHAR c29
ENCODING 41
SWIDTH 334 0
DWIDTH 16 0
BBX 16 9 0 1
BITMAP
fffe
7fff
0180
0f80
0f60
31f0
1198
0fb8
0730
ENDCHAR
STARTCHAR c2a
ENCODING 42
SWIDTH 334 0
DWIDTH 16 0
BBX 16 10 0 0
BITMAP
fffe
7fff
1b00
3f70
03f0
0fb0
1f38
1b60
0338
011c
ENDCHAR
STARTCHAR c2b
ENCODING 43
SWIDTH 334 0
DWIDTH 16 0
BBX 16 16 0 -3
BITMAP
0e00
07c0
00e0
fffe
7fff
0cc0
0cc0
0cc0
0cc0
0cc0
0600
0100
00c0
0060
0030
0060
ENDCHAR
STARTCHAR c2c
ENCODING 44
SWIDTH 334 0
DWIDTH 16 0
BBX 16 13 0 -3
BITMAP
fffe
7fff
0cc0
0cc0
0cc0
0cc0
0cc0
0600
0100
00c0
0060
0030
0060
ENDCHAR
STARTCHAR c2d
ENCODING 45
SWIDTH 334 0
DWIDTH 16 0
BBX 16 16 0 -3
BITMAP
0700
0180
00c0
fffe
7fff
0cc0
0cc0
0cc0
0cc0
0cc0
0600
0100
00c0
0060
0030
0060
ENDCHAR
STARTCHAR c2e
ENCODING 46
SWIDTH 334 0
DWIDTH 16 0
BBX 16 16 0 -3
BITMAP
04c0
02c0
0180
fffe
7fff
0cc0
0cc0
0cc0
0cc0
0cc0
0600
0100
00c0
0060
0030
0060
ENDCHAR
STARTCHAR c2f
ENCODING 47
SWIDTH 334 0
DWIDTH 16 0
BBX 16 13 0 0
BITMAP
01c0
0078
000c
19fe
7dff
2666
1e66
5ee6
63e6
2766
1e66
0c66
0022
ENDCHAR
STARTCHAR c30
ENCODING 48
SWIDTH 334 0
DWIDTH 16 0
BBX 16 13 0 0
BITMAP
0070
0018
000c
19fe
7dff
2666
1e66
5ee6
63e6
2766
1e66
0c66
0022
ENDCHAR
STARTCHAR c31
ENCODING 49
SWIDTH 334 0
DWIDTH 16 0
BBX 16 13 0 0
BITMAP
0018
00e4
001c
19fe
7dff
2666
1e66
5ee6
63e6
2766
1e66
0c66
0022
ENDCHAR
STARTCHAR c32
ENCODING 50
SWIDTH 334 0
DWIDTH 16 0
BBX 16 13 0 0
BITMAP
0026
0016
000c
19fe
7dff
2666
1e66
5ee6
63e6
2766
1e66
0c66
0022
ENDCHAR
STARTCHAR c33
ENCODING 51
SWIDTH 334 0
DWIDTH 16 0
BBX 16 10 0 0
BITMAP
fffe
7fff
0f00
1fe0
1bf0
1f30
0f30
0330
0330
0100
ENDCHAR
STARTCHAR c34
ENCODING 52
SWIDTH 334 0
DWIDTH 16 0
BBX 16 10 0 0
BITMAP
fffe
7fff
0630
1ff0
1ff0
0ff0
0df0
0430
0230
0100
ENDCHAR
STARTCHAR c35
ENCODING 53
SWIDTH 334 0
DWIDTH 16 0
BBX 16 10 0 0
BITMAP
fffe
7fff
0660
0660
0e60
0e60
0e60
0060
0060
0020
ENDCHAR
STARTCHAR c36
ENCODING 54
SWIDTH 334 0
DWIDTH 16 0
BBX 16 10 0 0
BITMAP
fffe
7fff
0c60
0760
0f60
07e0
03e0
0060
0060
0020
ENDCHAR
STARTCHAR c37
ENCODING 55
SWIDTH 334 0
DWIDTH 16 0
BBX 16 9 0 1
BITMAP
fffe
7fff
07c0
0f80
07b0
13c0
08c0
0780
0300
ENDCHAR
STARTCHAR c38
ENCODING 56
SWIDTH 334 0
DWIDTH 16 0
BBX 16 10 0 0
BITMAP
fffe
7fff
0060
1fe0
0fe0
07e0
03e0
0060
0060
0020
ENDCHAR
STARTCHAR c39
ENCODING 57
SWIDTH 334 0
DWIDTH 16 0
BBX 16 11 0 -1
BITMAP
fffe
7fff
1e60
3ef0
10f0
0f70
0f30
0cf0
0fc8
079c
0018
ENDCHAR
STARTCHAR c3a
ENCODING 58
SWIDTH 334 0
DWIDTH 16 0
BBX 16 10 0 0
BITMAP
fffe
7fff
0030
13f0
09f0
0cb0
04f0
03b0
0130
0010
ENDCHAR
STARTCHAR c3b
ENCODING 59
SWIDTH 334 0
DWIDTH 16 0
BBX 16 10 0 0
BITMAP
fffe
7fff
0f30
1f30
0e70
07f0
0df0
1f30
0f30
0190
ENDCHAR
STARTCHAR c3c
ENCODING 60
SWIDTH 334 0
DWIDTH 16 0
BBX 16 9 0 1
BITMAP
fffe
7fff
0030
0630
03f0
0bf0
0f30
0630
0030
ENDCHAR
STARTCHAR c3d
ENCODING 61
SWIDTH 334 0
DWIDTH 16 0
BBX 16 9 0 1
BITMAP
fffe
7fff
00c0
03c0
07c0
0c00
0c00
07f0
03e0
ENDCHAR
STARTCHAR c3e
ENCODING 62
SWIDTH 334 0
DWIDTH 16 0
BBX 16 9 0 1
BITMAP
fffe
7fff
00c0
07c0
0fc0
0c20
0c30
07e0
03c0
ENDCHAR
STARTCHAR c3f
ENCODING 63
SWIDTH 334 0
DWIDTH 16 0
BBX 16 9 0 1
BITMAP
fffe
7fff
01e0
03e0
03c0
0de0
0470
03e0
01c0
ENDCHAR
STARTCHAR c40
ENCODING 64
SWIDTH 334 0
DWIDTH 16 0
BBX 16 9 0 1
BITMAP
fffe
7fff
03c0
07c0
0c00
0cc0
05e0
03f0
01e0
ENDCHAR
STARTCHAR c41
ENCODING 65
SWIDTH 334 0
DWIDTH 16 0
BBX 16 9 0 1
BITMAP
fffe
7fff
0db0
0db0
0db0
07b0
0330
0030
0030
ENDCHAR
STARTCHAR c42
ENCODING 66
SWIDTH 334 0
DWIDTH 16 0
BBX 16 10 0 0
BITMAP
fffe
7fff
0060
07e0
0fe0
0c60
0460
0660
0260
0120
ENDCHAR
STARTCHAR c43
ENCODING 67
SWIDTH 334 0
DWIDTH 16 0
BBX 16 9 0 1
BITMAP
06fe
0f7f
0f30
0730
0f30
07f0
03f0
0030
0030
ENDCHAR
STARTCHAR c44
ENCODING 68
SWIDTH 334 0
DWIDTH 16 0
BBX 16 9 0 1
BITMAP
fffe
7fff
03e0
07e0
0600
06c0
03e0
01e0
0020
ENDCHAR
STARTCHAR c45
ENCODING 69
SWIDTH 334 0
DWIDTH 16 0
BBX 16 10 0 0
BITMAP
01fe
0cff
0c60
0760
0f60
07e0
03e0
0060
0060
0020
ENDCHAR
STARTCHAR c46
ENCODING 70
SWIDTH 334 0
DWIDTH 16 0
BBX 16 10 0 0
BITMAP
fffe
7fff
0060
03e0
07e0
0660
0060
0060
0060
0020
ENDCHAR
STARTCHAR c47
ENCODING 71
SWIDTH 334 0
DWIDTH 16 0
BBX 16 10 0 0
BITMAP
fffe
7fff
0060
03e0
07e0
0660
0060
0060
0060
0320
ENDCHAR
STARTCHAR c48
ENCODING 72
SWIDTH 334 0
DWIDTH 16 0
BBX 16 10 0 0
BITMAP
fffe
7fff
0660
0660
0260
01e0
00e0
0060
0060
0020
ENDCHAR
STARTCHAR c49
ENCODING 73
SWIDTH 334 0
DWIDTH 16 0
BBX 16 10 0 0
BITMAP
fffe
7fff
1980
19f0
09f8
0798
0398
01b0
0190
0080
ENDCHAR
STARTCHAR c4a
ENCODING 74
SWIDTH 334 0
DWIDTH 16 0
BBX 16 10 0 0
BITMAP
fffe
7fff
03e0
07e0
0f60
05e0
03e0
01e0
0060
0020
ENDCHAR
STARTCHAR c4b
ENCODING 75
SWIDTH 334 0
DWIDTH 16 0
BBX 16 10 0 0
BITMAP
19fe
0cff
0660
0660
0fe0
0fe0
0660
0060
0060
0020
ENDCHAR
STARTCHAR c4c
ENCODING 76
SWIDTH 334 0
DWIDTH 16 0
BBX 16 9 0 1
BITMAP
fffe
7fff
0630
0630
0ff0
0ff0
0e30
0030
0030
ENDCHAR
STARTCHAR c4d
ENCODING 77
SWIDTH 334 0
DWIDTH 16 0
BBX 16 10 0 0
BITMAP
fffe
7fff
0360
0e60
0c60
07e0
03e0
0060
0060
0020
ENDCHAR
STARTCHAR c4e
ENCODING 78
SWIDTH 334 0
DWIDTH 16 0
BBX 16 12 0 -2
BITMAP
fffe
7fff
0360
0e60
0c60
07e0
03e0
0060
0060
0020
0180
0100
ENDCHAR
STARTCHAR c4f
ENCODING 79
SWIDTH 334 0
DWIDTH 16 0
BBX 16 10 0 0
BITMAP
fffe
7fff
0300
0700
0700
0300
0300
0100
00c0
0060
ENDCHAR
STARTCHAR c50
ENCODING 80
SWIDTH 334 0
DWIDTH 16 0
BBX 16 12 0 -2
BITMAP
fffe
7fff
0300
0700
0700
0300
0300
0100
00c0
0060
0180
0100
ENDCHAR
STARTCHAR c51
ENCODING 81
SWIDTH 334 0
DWIDTH 16 0
BBX 16 10 0 0
BITMAP
fffe
7fff
0030
0f70
0ff0
0cf0
0c30
0430
0230
0010
ENDCHAR
STARTCHAR c52
ENCODING 82
SWIDTH 334 0
DWIDTH 16 0
BBX 16 9 0 1
BITMAP
fffe
7fff
00c0
0ce0
1ff0
3398
3318
1ff8
0ff0
ENDCHAR
STARTCHAR c53
ENCODING 83
SWIDTH 334 0
DWIDTH 16 0
BBX 16 12 0 -2
BITMAP
fffe
7fff
00c0
0ce0
1ff0
3398
3318
1ff8
0ff0
0000
0180
0100
ENDCHAR
STARTCHAR c54
ENCODING 84
SWIDTH 334 0
DWIDTH 16 0
BBX 16 10 0 0
BITMAP
fffe
7fff
03e0
07e0
0c60
0460
03e0
01e0
0060
0020
ENDCHAR
STARTCHAR c55
ENCODING 85
SWIDTH 334 0
DWIDTH 16 0
BBX 16 10 0 0
BITMAP
fffe
7fff
0cf0
04f0
03f0
0ff0
0fb0
0730
00b0
0010
ENDCHAR
STARTCHAR c56
ENCODING 86
SWIDTH 334 0
DWIDTH 16 0
BBX 16 10 0 0
BITMAP
fffe
7fff
0760
07e0
02e0
01e0
00e0
0060
0060
0020
ENDCHAR
STARTCHAR c57
ENCODING 87
SWIDTH 334 0
DWIDTH 16 0
BBX 16 10 0 0
BITMAP
fffe
7fff
0730
0e30
0ff0
0df0
0430
0630
0230
0100
ENDCHAR
STARTCHAR c58
ENCODING 88
SWIDTH 334 0
DWIDTH 16 0
BBX 16 12 0 -2
BITMAP
fffe
7fff
07c0
0fc0
0c00
07c0
07e0
0cf0
04e0
0300
01e0
0060
ENDCHAR
STARTCHAR c59
ENCODING 89
SWIDTH 334 0
DWIDTH 16 0
BBX 16 16 0 -3
BITMAP
ffff
8001
8001
8001
8001
8001
8001
8001
8001
8001
8001
8001
8001
8001
8001
ffff
ENDCHAR
STARTCHAR c5a
ENCODING 90
SWIDTH 334 0
DWIDTH 16 0
BBX 16 9 0 1
BITMAP
1f00
1f80
0c00
0c00
0c00
0c00
0c00
0c00
0c00
ENDCHAR
STARTCHAR c5b
ENCODING 91
SWIDTH 334 0
DWIDTH 16 0
BBX 16 12 0 1
BITMAP
0780
0ce0
0c00
1f00
1f80
0c00
0c00
0c00
0c00
0c00
0c00
0c00
ENDCHAR
STARTCHAR c5c
ENCODING 92
SWIDTH 334 0
DWIDTH 16 0
BBX 16 12 0 1
BITMAP
7800
cc00
c600
0fc0
07e0
0300
0300
0300
0300
0300
0300
0300
ENDCHAR
STARTCHAR c5d
ENCODING 93
SWIDTH 334 0
DWIDTH 16 0
BBX 16 4 0 -3
BITMAP
01b8
00fc
007c
003c
ENDCHAR
STARTCHAR c5e
ENCODING 94
SWIDTH 334 0
DWIDTH 16 0
BBX 16 4 0 -3
BITMAP
00f0
00f8
00ec
0064
ENDCHAR
STARTCHAR c5f
ENCODING 95
SWIDTH 334 0
DWIDTH 16 0
BBX 16 4 0 -3
BITMAP
0038
0078
007c
003c
ENDCHAR
STARTCHAR c60
ENCODING 96
SWIDTH 334 0
DWIDTH 16 0
BBX 16 4 0 9
BITMAP
1800
0f00
0780
00c0
ENDCHAR
STARTCHAR c61
ENCODING 97
SWIDTH 334 0
DWIDTH 16 0
BBX 16 4 0 9
BITMAP
0700
0380
00c0
0040
ENDCHAR
STARTCHAR c62
ENCODING 98
SWIDTH 334 0
DWIDTH 16 0
BBX 16 4 0 9
BITMAP
0100
0e80
03c0
0040
ENDCHAR
STARTCHAR c63
ENCODING 99
SWIDTH 334 0
DWIDTH 16 0
BBX 16 3 0 10
BITMAP
04c0
02c0
0180
ENDCHAR
STARTCHAR c64
ENCODING 100
SWIDTH 334 0
DWIDTH 16 0
BBX 16 12 0 1
BITMAP
3800
0f00
01c0
03f0
01f8
00c0
00c0
00c0
00c0
00c0
00c0
00c0
ENDCHAR
STARTCHAR c65
ENCODING 101
SWIDTH 334 0
DWIDTH 16 0
BBX 16 12 0 1
BITMAP
0e00
0300
0180
03f0
01f8
00c0
00c0
00c0
00c0
00c0
00c0
00c0
ENDCHAR
STARTCHAR c66
ENCODING 102
SWIDTH 334 0
DWIDTH 16 0
BBX 16 12 0 1
BITMAP
0d80
0680
03c0
03f0
01f8
00c0
00c0
00c0
00c0
00c0
00c0
00c0
ENDCHAR
STARTCHAR c67
ENCODING 103
SWIDTH 334 0
DWIDTH 16 0
BBX 16 12 0 1
BITMAP
04c0
02c0
0180
03f0
01f8
00c0
00c0
00c0
00c0
00c0
00c0
00c0
ENDCHAR
STARTCHAR c68
ENCODING 104
SWIDTH 334 0
DWIDTH 16 0
BBX 16 3 0 -2
BITMAP
0300
0380
0040
ENDCHAR
STARTCHAR c69
ENCODING 105
SWIDTH 334 0
DWIDTH 16 0
BBX 16 2 0 -2
BITMAP
0080
0180
ENDCHAR
STARTCHAR c6a
ENCODING 106
SWIDTH 334 0
DWIDTH 16 0
BBX 16 10 0 0
BITMAP
0400
0600
0600
0600
0600
0600
0600
0600
0600
0200
ENDCHAR
STARTCHAR c6b
ENCODING 107
SWIDTH 334 0
DWIDTH 16 0
BBX 16 16 0 -3
BITMAP
0000
0000
0000
0000
0000
0000
0000
0000
0000
0000
0000
0000
0000
0000
0000
0000
ENDCHAR
STARTCHAR c6c
ENCODING 108
SWIDTH 334 0
DWIDTH 16 0
BBX 16 16 0 -3
BITMAP
0000
0000
0000
0000
0000
0000
0000
0000
0000
0000
0000
0000
0000
0000
0000
0000
ENDCHAR
STARTCHAR c6d
ENCODING 109
SWIDTH 334 0
DWIDTH 16 0
BBX 16 16 0 -3
BITMAP
0000
0000
0000
0000
0000
0000
0000
0000
0000
0000
0000
0000
0000
0000
0000
0000
ENDCHAR
STARTCHAR c6e
ENCODING 110
SWIDTH 334 0
DWIDTH 16 0
BBX 16 16 0 -3
BITMAP
0000
0000
0000
0000
0000
0000
0000
0000
0000
0000
0000
0000
0000
0000
0000
0000
ENDCHAR
STARTCHAR c6f
ENCODING 111
SWIDTH 334 0
DWIDTH 16 0
BBX 16 16 0 -3
BITMAP
0000
0000
0800
0800
1400
17f0
1480
22bc
3ea2
22a2
22a2
00bc
00a8
0024
0022
0000
ENDCHAR
STARTCHAR c70
ENCODING 112
SWIDTH 334 0
DWIDTH 16 0
BBX 16 16 0 -3
BITMAP
0000
0000
0000
0000
0000
0000
0000
0000
0000
0000
0000
0000
0000
0000
0000
0000
ENDCHAR
STARTCHAR c71
ENCODING 113
SWIDTH 334 0
DWIDTH 16 0
BBX 16 6 0 2
BITMAP
0c00
1e00
3300
1300
0f00
0600
ENDCHAR
STARTCHAR c72
ENCODING 114
SWIDTH 334 0
DWIDTH 16 0
BBX 16 12 0 -2
BITMAP
0100
0380
06c0
06c0
03c0
0180
0700
0600
0200
0100
0080
0080
ENDCHAR
STARTCHAR c73
ENCODING 115
SWIDTH 334 0
DWIDTH 16 0
BBX 16 10 0 -1
BITMAP
1f00
0f80
00c0
01c0
1f80
0f00
0200
0300
0100
0080
ENDCHAR
STARTCHAR c74
ENCODING 116
SWIDTH 334 0
DWIDTH 16 0
BBX 16 10 0 -1
BITMAP
1c00
0e00
1f00
1e00
0300
1700
1e00
0c00
0200
0300
ENDCHAR
STARTCHAR c75
ENCODING 117
SWIDTH 334 0
DWIDTH 16 0
BBX 16 9 0 1
BITMAP
0040
10e0
0b80
0700
0e00
0f00
0f00
0700
0200
ENDCHAR
STARTCHAR c76
ENCODING 118
SWIDTH 334 0
DWIDTH 16 0
BBX 16 9 0 0
BITMAP
3300
3300
1300
0f00
0700
0600
1e00
1f00
0080
ENDCHAR
STARTCHAR c77
ENCODING 119
SWIDTH 334 0
DWIDTH 16 0
BBX 16 11 0 -1
BITMAP
0e00
1e00
3000
1e00
0f00
1800
1900
0f80
0700
0180
0080
ENDCHAR
STARTCHAR c78
ENCODING 120
SWIDTH 334 0
DWIDTH 16 0
BBX 16 8 0 1
BITMAP
3300
3780
3640
1260
19e0
08e0
07c0
0380
ENDCHAR
STARTCHAR c79
ENCODING 121
SWIDTH 334 0
DWIDTH 16 0
BBX 16 8 0 1
BITMAP
1f80
1fc0
0c00
1800
1800
1980
0fc0
06c0
ENDCHAR
STARTCHAR c7a
ENCODING 122
SWIDTH 334 0
DWIDTH 16 0
BBX 16 11 0 -1
BITMAP
1c00
3e00
3300
1e00
0c00
0c00
0400
0200
0100
0180
0180
ENDCHAR
STARTCHAR c7b
ENCODING 123
SWIDTH 334 0
DWIDTH 16 0
BBX 16 16 0 -3
BITMAP
0000
0000
0000
0000
0000
0000
0000
0000
0000
0000
0000
0000
0000
0000
0000
0000
ENDCHAR
STARTCHAR c7c
ENCODING 124
SWIDTH 334 0
DWIDTH 16 0
BBX 16 16 0 -3
BITMAP
0000
0000
0000
0000
0000
0000
0000
0000
0000
0000
0000
0000
0000
0000
0000
0000
ENDCHAR
STARTCHAR c7d
ENCODING 125
SWIDTH 334 0
DWIDTH 16 0
BBX 16 16 0 -3
BITMAP
0000
0000
0000
0000
0000
0000
0000
0000
0000
0000
0000
0000
0000
0000
0000
0000
ENDCHAR
STARTCHAR c7e
ENCODING 126
SWIDTH 334 0
DWIDTH 16 0
BBX 16 16 0 -3
BITMAP
0000
0000
0000
0000
0000
0000
0000
0000
0000
0000
0000
0000
0000
0000
0000
0000
ENDCHAR
ENDFONT
